<svg xmlns="http://www.w3.org/2000/svg" xmlns:xlink="http://www.w3.org/1999/xlink" width="1920" height="900" viewBox="0 0 1920 900">
  <defs>
    <linearGradient id="linear-gradient" x1="0.5" y1="0.132" x2="0.5" y2="4.898" gradientUnits="objectBoundingBox">
      <stop offset="0" stop-color="#621a4b"/>
      <stop offset="1" stop-color="#fba01f"/>
    </linearGradient>
    <filter id="mask" x="0" y="0" width="1920" height="900.667" filterUnits="userSpaceOnUse">
      <feOffset dy="-57" input="SourceAlpha"/>
      <feGaussianBlur stdDeviation="25.5" result="blur"/>
      <feFlood flood-color="#3a0629" flood-opacity="0.302" result="color"/>
      <feComposite operator="out" in="SourceGraphic" in2="blur"/>
      <feComposite operator="in" in="color"/>
      <feComposite operator="in" in2="SourceGraphic"/>
    </filter>
    <filter id="Path_908" x="-114.574" y="584.5" width="372.432" height="420.938" filterUnits="userSpaceOnUse">
      <feOffset dy="3" input="SourceAlpha"/>
      <feGaussianBlur stdDeviation="13" result="blur-2"/>
      <feFlood flood-opacity="0.302"/>
      <feComposite operator="in" in2="blur-2"/>
      <feComposite in="SourceGraphic"/>
    </filter>
    <filter id="Path_1018" x="1490.461" y="508.858" width="421.703" height="433.702" filterUnits="userSpaceOnUse">
      <feOffset dy="3" input="SourceAlpha"/>
      <feGaussianBlur stdDeviation="13" result="blur-3"/>
      <feFlood flood-opacity="0.302"/>
      <feComposite operator="in" in2="blur-3"/>
      <feComposite in="SourceGraphic"/>
    </filter>
    <filter id="Path_909" x="143.984" y="680.616" width="261.035" height="300.246" filterUnits="userSpaceOnUse">
      <feOffset dy="3" input="SourceAlpha"/>
      <feGaussianBlur stdDeviation="13" result="blur-4"/>
      <feFlood flood-opacity="0.302"/>
      <feComposite operator="in" in2="blur-4"/>
      <feComposite in="SourceGraphic"/>
    </filter>
    <filter id="Path_1017" x="1732.875" y="670.962" width="297.205" height="309.226" filterUnits="userSpaceOnUse">
      <feOffset dy="3" input="SourceAlpha"/>
      <feGaussianBlur stdDeviation="13" result="blur-5"/>
      <feFlood flood-opacity="0.302"/>
      <feComposite operator="in" in2="blur-5"/>
      <feComposite in="SourceGraphic"/>
    </filter>
    <filter id="Path_903" x="-51.947" y="148.887" width="273.932" height="307.824" filterUnits="userSpaceOnUse">
      <feOffset dy="3" input="SourceAlpha"/>
      <feGaussianBlur stdDeviation="13" result="blur-6"/>
      <feFlood flood-opacity="0.302"/>
      <feComposite operator="in" in2="blur-6"/>
      <feComposite in="SourceGraphic"/>
    </filter>
    <filter id="Path_907" x="86.818" y="492.822" width="135.168" height="145.906" filterUnits="userSpaceOnUse">
      <feOffset dy="3" input="SourceAlpha"/>
      <feGaussianBlur stdDeviation="13" result="blur-7"/>
      <feFlood flood-opacity="0.302"/>
      <feComposite operator="in" in2="blur-7"/>
      <feComposite in="SourceGraphic"/>
    </filter>
    <filter id="Path_906" x="-50.773" y="345.927" width="188.357" height="199.506" filterUnits="userSpaceOnUse">
      <feOffset dy="3" input="SourceAlpha"/>
      <feGaussianBlur stdDeviation="13" result="blur-8"/>
      <feFlood flood-opacity="0.302"/>
      <feComposite operator="in" in2="blur-8"/>
      <feComposite in="SourceGraphic"/>
    </filter>
    <filter id="Path_903-2" x="1720.012" y="105.811" width="308.371" height="317.794" filterUnits="userSpaceOnUse">
      <feOffset dy="3" input="SourceAlpha"/>
      <feGaussianBlur stdDeviation="13" result="blur-9"/>
      <feFlood flood-opacity="0.302"/>
      <feComposite operator="in" in2="blur-9"/>
      <feComposite in="SourceGraphic"/>
    </filter>
    <filter id="Path_907-2" x="1780.396" y="459.88" width="147.572" height="152.131" filterUnits="userSpaceOnUse">
      <feOffset dy="3" input="SourceAlpha"/>
      <feGaussianBlur stdDeviation="13" result="blur-10"/>
      <feFlood flood-opacity="0.302"/>
      <feComposite operator="in" in2="blur-10"/>
      <feComposite in="SourceGraphic"/>
    </filter>
    <filter id="Path_906-2" x="1688.824" y="290.812" width="199.018" height="190.886" filterUnits="userSpaceOnUse">
      <feOffset dy="3" input="SourceAlpha"/>
      <feGaussianBlur stdDeviation="13" result="blur-11"/>
      <feFlood flood-opacity="0.302"/>
      <feComposite operator="in" in2="blur-11"/>
      <feComposite in="SourceGraphic"/>
    </filter>
    <linearGradient id="linear-gradient-2" x1="1.365" y1="-0.489" x2="-0.701" y2="1.183" gradientUnits="objectBoundingBox">
      <stop offset="0.01" stop-color="#ff7e00"/>
      <stop offset="1" stop-color="#330072"/>
    </linearGradient>
    <linearGradient id="linear-gradient-3" x1="0.814" y1="-0.136" x2="-0.863" y2="0.381" gradientUnits="objectBoundingBox">
      <stop offset="0" stop-color="#ff7e00"/>
      <stop offset="1" stop-color="#330072"/>
    </linearGradient>
    <linearGradient id="linear-gradient-4" x1="-0.014" y1="0.012" x2="0.955" y2="0.459" gradientUnits="objectBoundingBox">
      <stop offset="0" stop-color="#ffc030"/>
      <stop offset="0.477" stop-color="#ffe9cf"/>
      <stop offset="1" stop-color="#ff8333"/>
    </linearGradient>
    <filter id="Path_902" x="1422.588" y="273.911" width="297.527" height="296.559" filterUnits="userSpaceOnUse">
      <feOffset dy="19" input="SourceAlpha"/>
      <feGaussianBlur stdDeviation="8" result="blur-12"/>
      <feFlood flood-color="#0d1736" flood-opacity="0.369"/>
      <feComposite operator="in" in2="blur-12"/>
      <feComposite in="SourceGraphic"/>
    </filter>
    <linearGradient id="linear-gradient-5" x1="0.069" y1="1.076" x2="0.335" y2="-0.143" gradientUnits="objectBoundingBox">
      <stop offset="0" stop-color="#330072"/>
      <stop offset="1" stop-color="#57f1fb"/>
    </linearGradient>
    <filter id="Path_901" x="280.494" y="517.473" width="242.971" height="259.323" filterUnits="userSpaceOnUse">
      <feOffset dy="19" input="SourceAlpha"/>
      <feGaussianBlur stdDeviation="8" result="blur-13"/>
      <feFlood flood-color="#040710" flood-opacity="0.239"/>
      <feComposite operator="in" in2="blur-13"/>
      <feComposite in="SourceGraphic"/>
    </filter>
    <clipPath id="clip-Self_Employed_Loans_-_Header_Option">
      <rect width="1920" height="900"/>
    </clipPath>
  </defs>
  <g id="Self_Employed_Loans_-_Header_Option" data-name="Self Employed Loans - Header Option" clip-path="url(#clip-Self_Employed_Loans_-_Header_Option)">
    <rect width="1920" height="900" fill="#fff"/>
    <g id="Logo_Menu" data-name="Logo+Menu" transform="translate(34.5 -34)">
      <g data-type="innerShadowGroup">
        <path id="mask-2" data-name="mask" d="M0,0H1920V900.667H0Z" transform="translate(-34.5 34)" fill="url(#linear-gradient)"/>
        <g transform="matrix(1, 0, 0, 1, -34.5, 34)" filter="url(#mask)">
          <path id="mask-3" data-name="mask" d="M0,0H1920V900.667H0Z" fill="#fff"/>
        </g>
      </g>
    </g>
    <g transform="matrix(1, 0, 0, 1, 0, 0)" filter="url(#Path_908)">
      <g id="Path_908-2" data-name="Path 908" transform="matrix(-0.94, -0.34, 0.34, -0.94, 119.94, 963.44)" fill="none">
        <path d="M0,0,208.059,130.679,0,289.22Z" stroke="none"/>
        <path d="M 0.9999847412109375 1.8089599609375 L 1.000213623046875 287.2007141113281 L 206.3047943115234 130.7581176757812 L 0.9999847412109375 1.8089599609375 M -1.52587890625e-05 0 L 208.0587158203125 130.6788482666016 L 0.000213623046875 289.2199401855469 L -1.52587890625e-05 0 Z" stroke="none" fill="rgba(250,250,250,0.3)"/>
      </g>
    </g>
    <g transform="matrix(1, 0, 0, 1, 0, 0)" filter="url(#Path_1018)">
      <g id="Path_1018-2" data-name="Path 1018" transform="translate(1691.15 900.56) rotate(-141)" fill="none">
        <path d="M0,0,208.059,130.679,0,289.22Z" stroke="none"/>
        <path d="M 0.9999847412109375 1.8089599609375 L 1.000213623046875 287.2007141113281 L 206.3047943115234 130.7581176757812 L 0.9999847412109375 1.8089599609375 M -1.52587890625e-05 0 L 208.0587158203125 130.6788482666016 L 0.000213623046875 289.2199401855469 L -1.52587890625e-05 0 Z" stroke="none" fill="rgba(250,250,250,0.3)"/>
      </g>
    </g>
    <g transform="matrix(1, 0, 0, 1, 0, 0)" filter="url(#Path_909)">
      <g id="Path_909-2" data-name="Path 909" transform="translate(242.12 716.62) rotate(18)" fill="none">
        <path d="M0,0,130.281,86.459,0,191.352Z" stroke="none"/>
        <path d="M 1.000015258789062 1.86383056640625 L 1.000137329101562 189.2630920410156 L 128.5900268554688 86.53682708740234 L 1.000015258789062 1.86383056640625 M 1.52587890625e-05 1.52587890625e-05 L 130.28125 86.45900726318359 L 0.0001373291015625 191.35205078125 L 1.52587890625e-05 1.52587890625e-05 Z" stroke="none" fill="rgba(250,250,250,0.3)"/>
      </g>
    </g>
    <g transform="matrix(1, 0, 0, 1, 0, 0)" filter="url(#Path_1017)">
      <g id="Path_1017-2" data-name="Path 1017" transform="translate(1887.03 706.96) rotate(37)" fill="none">
        <path d="M0,0,130.281,86.459,0,191.352Z" stroke="none"/>
        <path d="M 1.000015258789062 1.86383056640625 L 1.000137329101562 189.2630920410156 L 128.5900268554688 86.53682708740234 L 1.000015258789062 1.86383056640625 M 1.52587890625e-05 1.52587890625e-05 L 130.28125 86.45900726318359 L 0.0001373291015625 191.35205078125 L 1.52587890625e-05 1.52587890625e-05 Z" stroke="none" fill="rgba(250,250,250,0.3)"/>
      </g>
    </g>
    <g id="Group_1032" data-name="Group 1032">
      <g transform="matrix(1, 0, 0, 1, 0, 0)" filter="url(#Path_903)">
        <g id="Path_903-3" data-name="Path 903" transform="translate(50.48 184.89) rotate(19)" fill="none">
          <path d="M0,0,140.143,88.022,0,194.811Z" stroke="none"/>
          <path d="M 1 1.8089599609375 L 1.00006103515625 192.7918090820312 L 138.38916015625 88.10109710693359 L 1 1.8089599609375 M 0 -1.52587890625e-05 L 140.1431121826172 88.02184295654297 L 6.103515625e-05 194.8110656738281 L 0 -1.52587890625e-05 Z" stroke="none" fill="rgba(250,250,250,0.6)"/>
        </g>
      </g>
      <g transform="matrix(1, 0, 0, 1, 0, 0)" filter="url(#Path_907)">
        <g id="Path_907-3" data-name="Path 907" transform="translate(139.16 528.82) rotate(13)" fill="none">
          <path d="M0,0,44.978,26.8,0,59.308Z" stroke="none"/>
          <path d="M 1 1.759803771972656 L 1.000007629394531 57.35126113891602 L 43.15993881225586 26.87778091430664 L 1 1.759803771972656 M 0 0 L 44.97847747802734 26.79719924926758 L 7.62939453125e-06 59.30793762207031 L 0 0 Z" stroke="none" fill="rgba(250,250,250,0.6)"/>
        </g>
      </g>
      <g transform="matrix(1, 0, 0, 1, 0, 0)" filter="url(#Path_906)">
        <g id="Path_906-3" data-name="Path 906" transform="translate(-11.77 468.29) rotate(-56)" fill="none">
          <path d="M0,0,104.168,28.4,0,62.853Z" stroke="none"/>
          <path d="M 1.000007629394531 1.309116363525391 L 0.9999771118164062 61.46864700317383 L 100.7041854858398 28.49103927612305 L 1.000007629394531 1.309116363525391 M 7.62939453125e-06 -3.814697265625e-06 L 104.1676330566406 28.39876937866211 L -2.288818359375e-05 62.85268402099609 L 7.62939453125e-06 -3.814697265625e-06 Z" stroke="none" fill="rgba(250,250,250,0.6)"/>
        </g>
      </g>
    </g>
    <g id="Group_1033" data-name="Group 1033" transform="translate(1891.415 -49.437) rotate(19)">
      <g transform="matrix(0.95, -0.33, 0.33, 0.95, -1772.27, 662.53)" filter="url(#Path_903-2)">
        <g id="Path_903-4" data-name="Path 903" transform="matrix(0.79, 0.62, -0.62, 0.79, 1878.95, 141.81)" fill="none">
          <path d="M0,0,140.143,88.022,0,194.811Z" stroke="none"/>
          <path d="M 1 1.8089599609375 L 1.00006103515625 192.7918090820312 L 138.38916015625 88.10109710693359 L 1 1.8089599609375 M 0 -1.52587890625e-05 L 140.1431121826172 88.02184295654297 L 6.103515625e-05 194.8110656738281 L 0 -1.52587890625e-05 Z" stroke="none" fill="rgba(250,250,250,0.6)"/>
        </g>
      </g>
      <g transform="matrix(0.95, -0.33, 0.33, 0.95, -1772.27, 662.53)" filter="url(#Path_907-2)">
        <g id="Path_907-4" data-name="Path 907" transform="translate(1850.83 495.88) rotate(32)" fill="none">
          <path d="M0,0,44.978,26.8,0,59.308Z" stroke="none"/>
          <path d="M 1 1.759803771972656 L 1.000007629394531 57.35126113891602 L 43.15993881225586 26.87778091430664 L 1 1.759803771972656 M 0 0 L 44.97847747802734 26.79719924926758 L 7.62939453125e-06 59.30793762207031 L 0 0 Z" stroke="none" fill="rgba(250,250,250,0.6)"/>
        </g>
      </g>
      <g transform="matrix(0.95, -0.33, 0.33, 0.95, -1772.27, 662.53)" filter="url(#Path_906-2)">
        <g id="Path_906-4" data-name="Path 906" transform="translate(1727.82 389.5) rotate(-37)" fill="none">
          <path d="M0,0,104.168,28.4,0,62.853Z" stroke="none"/>
          <path d="M 1.000007629394531 1.309116363525391 L 0.9999771118164062 61.46864700317383 L 100.7041854858398 28.49103927612305 L 1.000007629394531 1.309116363525391 M 7.62939453125e-06 -3.814697265625e-06 L 104.1676330566406 28.39876937866211 L -2.288818359375e-05 62.85268402099609 L 7.62939453125e-06 -3.814697265625e-06 Z" stroke="none" fill="rgba(250,250,250,0.6)"/>
        </g>
      </g>
    </g>
    <path id="Path_1016" data-name="Path 1016" d="M775.013,191.955,616.86,212.383,689.427,109.97Z" transform="translate(727.878 875.922) rotate(-132)" fill-rule="evenodd" fill="url(#linear-gradient-2)"/>
    <path id="Path_1019" data-name="Path 1019" d="M762.177,179.019l-145.317,17.2,28.292-88.947Z" transform="translate(1044.287 212.256) rotate(36)" fill-rule="evenodd" fill="url(#linear-gradient-3)"/>
    <g id="Component_53_6" data-name="Component 53 – 6" transform="translate(1516.34 257.585) rotate(26)">
      <g transform="matrix(0.9, -0.44, 0.44, 0.9, -1475.8, 433.2)" filter="url(#Path_902)">
        <path id="Path_902-2" data-name="Path 902" d="M0,0,186.024,61.848,11.84,166.391Z" transform="translate(1582.64 527.47) rotate(-137)" fill-rule="evenodd" fill="url(#linear-gradient-4)"/>
      </g>
    </g>
    <g id="Component_52_6" data-name="Component 52 – 6" transform="translate(266.734 546.994) rotate(-15)">
      <g transform="matrix(0.97, 0.26, -0.26, 0.97, -116.07, -597.39)" filter="url(#Path_901)">
        <path id="Path_901-2" data-name="Path 901" d="M0,0,148.484,64.659,9.451,173.952Z" transform="translate(358.25 522.47) rotate(18)" fill-rule="evenodd" fill="url(#linear-gradient-5)"/>
      </g>
    </g>
  </g>
</svg>
