<?xml version="1.0" encoding="utf-8"?>
<!-- Generator: Adobe Illustrator 26.0.3, SVG Export Plug-In . SVG Version: 6.00 Build 0)  -->
<svg version="1.1" id="Layer_1" xmlns="http://www.w3.org/2000/svg" xmlns:xlink="http://www.w3.org/1999/xlink" x="0px" y="0px"
	 viewBox="0 0 1718.6 806.6" style="enable-background:new 0 0 1718.6 806.6;" xml:space="preserve">
<style type="text/css">
	.st0{fill:url(#SVGID_1_);}
	.st1{fill-rule:evenodd;clip-rule:evenodd;fill:url(#SVGID_00000149340512664256691160000016229444597821495428_);}
	.st2{fill-rule:evenodd;clip-rule:evenodd;fill:url(#SVGID_00000007400958805642957140000012230138945965240245_);}
</style>
<g id="surface1">
	
		<linearGradient id="SVGID_1_" gradientUnits="userSpaceOnUse" x1="-102.0547" y1="990.7576" x2="-102.0547" y2="985.9916" gradientTransform="matrix(1718.6016 0 0 -806.5664 176250.6406 799218.3125)">
		<stop  offset="0" style="stop-color:#621A4B"/>
		<stop  offset="1" style="stop-color:#FBA01F"/>
	</linearGradient>
	<path class="st0" d="M0,0h1718.6v806.6H0V0z"/>
	<g>
		
			<image style="overflow:visible;enable-background:new    ;" width="1920" height="900" id="image11" xlink:href="79CF4642A2EE7047.png"  transform="matrix(1 0 0 1 -102.5547 0)">
		</image>
	</g>
	<g>
		
			<image style="overflow:visible;enable-background:new    ;" width="1920" height="900" id="image19" xlink:href="79CF4642A2EE7045.png"  transform="matrix(1 0 0 1 -102.5547 0)">
		</image>
	</g>
	<g>
		
			<image style="overflow:visible;enable-background:new    ;" width="1920" height="900" id="image27" xlink:href="79CF4642A2EE704B.png"  transform="matrix(1 0 0 1 -102.5547 0)">
		</image>
	</g>
	<g>
		
			<image style="overflow:visible;enable-background:new    ;" width="1920" height="900" id="image35" xlink:href="79CF4642A2EE704D.png"  transform="matrix(1 0 0 1 -102.5547 0)">
		</image>
	</g>
	<g>
		
			<image style="overflow:visible;enable-background:new    ;" width="1920" height="900" id="image43" xlink:href="79CF4642A2EE704F.png"  transform="matrix(1 0 0 1 -102.5547 0)">
		</image>
	</g>
	<g>
		
			<image style="overflow:visible;enable-background:new    ;" width="1920" height="900" id="image51" xlink:href="79CF4642A2EE704C.png"  transform="matrix(1 0 0 1 -102.5547 0)">
		</image>
	</g>
	<g>
		
			<image style="overflow:visible;enable-background:new    ;" width="1920" height="900" id="image59" xlink:href="79CF4642A2EE7044.png"  transform="matrix(1 0 0 1 -102.5547 0)">
		</image>
	</g>
	<g>
		
			<image style="overflow:visible;enable-background:new    ;" width="1920" height="900" id="image67" xlink:href="79CF4642A2EE7046.png"  transform="matrix(1 0 0 1 -102.5547 0)">
		</image>
	</g>
	<g>
		
			<image style="overflow:visible;enable-background:new    ;" width="1920" height="900" id="image75" xlink:href="79CF4642A2EE7042.png"  transform="matrix(1 0 0 1 -102.5547 0)">
		</image>
	</g>
	<g>
		
			<image style="overflow:visible;enable-background:new    ;" width="1920" height="900" id="image83" xlink:href="9AF527A18C763A44.png"  transform="matrix(1 0 0 1 -102.5547 0)">
		</image>
	</g>
	<g>
		
			<image style="overflow:visible;enable-background:new    ;" width="1920" height="900" id="image91" xlink:href="9AF527A18C763A43.png"  transform="matrix(1 0 0 1 -102.5547 0)">
		</image>
	</g>
	
		<linearGradient id="SVGID_00000150823680171535035080000012852898458171018374_" gradientUnits="userSpaceOnUse" x1="-101.5136" y1="991.7438" x2="-103.5796" y2="990.0718" gradientTransform="matrix(-102.6906 -114.1026 -114.3549 103.0136 103156 -113562.0469)">
		<stop  offset="1.000000e-02" style="stop-color:#FF7E00"/>
		<stop  offset="1" style="stop-color:#330072"/>
	</linearGradient>
	<path style="fill-rule:evenodd;clip-rule:evenodd;fill:url(#SVGID_00000150823680171535035080000012852898458171018374_);" d="
		M315,153.6l108.3,93l-111.6,13.1L315,153.6z"/>
	
		<linearGradient id="SVGID_00000135688605714209605550000013652197711425712010_" gradientUnits="userSpaceOnUse" x1="-101.2806" y1="990.2565" x2="-102.9576" y2="989.7394" gradientTransform="matrix(128.7825 93.6096 93.4676 -128.7072 -78101.4766 137612.9062)">
		<stop  offset="0" style="stop-color:#FF7E00"/>
		<stop  offset="1" style="stop-color:#330072"/>
	</linearGradient>
	<path style="fill-rule:evenodd;clip-rule:evenodd;fill:url(#SVGID_00000135688605714209605550000013652197711425712010_);" d="
		M1392.5,721l-114.3-64l67.3-49.5L1392.5,721z"/>
	<g>
		
			<image style="overflow:visible;enable-background:new    ;" width="1920" height="900" id="image99" xlink:href="9AF527A18C763A5C.png"  transform="matrix(1 0 0 1 -102.5547 0)">
		</image>
	</g>
	<g>
		
			<image style="overflow:visible;enable-background:new    ;" width="1920" height="900" id="image107" xlink:href="9AF527A18C763A5F.png"  transform="matrix(0.9485 0 0 0.8962 -102.5547 0)">
		</image>
	</g>
</g>
</svg>
