<svg xmlns="http://www.w3.org/2000/svg" width="263" height="100" viewBox="0 0 263 100">
  <g id="Group_978" data-name="Group 978" transform="translate(-143 -7801)">
    <g id="Rectangle_646" data-name="Rectangle 646" transform="translate(143 7801)" fill="#fff" stroke="#621a4b" stroke-width="1">
      <rect width="263" height="100" rx="5" stroke="none"/>
      <rect x="0.5" y="0.5" width="262" height="99" rx="4.5" fill="none"/>
    </g>
    <g id="Liberty-Aero-Horizontal-free-thinking" transform="translate(166.097 7834)">
      <path id="Path_910" data-name="Path 910" d="M181.949,33.152a2.879,2.879,0,1,0,2.879,2.876A2.879,2.879,0,0,0,181.949,33.152Zm87.074,7.535-4.341,13.171h-.074l-4.341-13.171h-5.2l6.9,18.953a2.926,2.926,0,0,1-3.047,3.218,6.728,6.728,0,0,1-2.415-.315L256.193,66a11.842,11.842,0,0,0,3.318.488c4.9,0,6-3.926,7.488-7.926l6.779-17.879ZM251.046,55.516c-1.765,0-2.171-1.438-2.171-3V44.1h4.147V40.687h-4.147V35.566l-4.635,1.512v3.609h-3.412V44.1h3.412v9.232c0,3.585,2,5.882,5.635,5.882a12.221,12.221,0,0,0,3.415-.415l-.147-3.729A4.253,4.253,0,0,1,251.046,55.516ZM232.584,44.834h-.05V40.687h-4.153v18.05h4.635V52.128c0-2.585,0-7.353,3.779-7.353a4.669,4.669,0,0,1,2.074.391V40.461a4.8,4.8,0,0,0-1.415-.147C234.681,40.322,232.793,43.152,232.584,44.834ZM212.681,48c.218-2.415,1.535-4.244,4.194-4.244S220.558,45.737,220.7,48Zm3.8-7.756c-5.632,0-8.415,4.318-8.415,9.562,0,5.95,3.488,9.388,9.465,9.388a12.343,12.343,0,0,0,6.221-1.438V53.922a12.346,12.346,0,0,1-6.026,1.829c-2.926,0-4.95-1.659-5.171-4.562h12.512c.026-6.318-1.876-10.926-8.585-10.926ZM196.755,55.64c-3.124,0-4.147-3.294-4.147-5.882,0-2.535,1.194-5.756,4.221-5.756s3.906,3.344,3.906,5.759C200.734,52.272,199.852,55.64,196.755,55.64Zm1.438-15.271a6.326,6.326,0,0,0-5.438,2.759h-.221V32.64H187.9V58.981h4.635v-2.2h.074a6.662,6.662,0,0,0,5.588,2.647c5.588,0,7.647-4.609,7.647-9.585C205.828,44.834,203.778,40.369,198.193,40.369ZM179.608,58.737h4.632V40.687h-4.632ZM167.169,34.346H162.29V58.981h14.391v-3.9h-9.512Z" transform="translate(-121.558 -32.493)" fill="#0a3370"/>
      <path id="Path_911" data-name="Path 911" d="M48.679,58.384V32.14L23.8,58.384Z" transform="translate(-23.8 -32.14)" fill="#05b3cb"/>
      <path id="Path_912" data-name="Path 912" d="M108.39,82.39h10.882L108.39,93.878Z" transform="translate(-83.511 -67.611)" fill="#0a3370"/>
      <path id="Path_913" data-name="Path 913" d="M582.391,41.948a1.15,1.15,0,0,1-.671,0V32.68h5.032a.748.748,0,0,1,.053.294.8.8,0,0,1-.053.294h-4.362v3.824h3.794a.728.728,0,0,1,.05.294.937.937,0,0,1-.05.294h-3.794Z" transform="translate(-417.626 -32.521)" fill="#0a3370"/>
      <path id="Path_914" data-name="Path 914" d="M608.061,32.68a2.424,2.424,0,0,1,2.6,2.6,2.373,2.373,0,0,1-1.9,2.512L611,41.948a1.176,1.176,0,0,1-.388.05,1.444,1.444,0,0,1-.4-.05l-2.174-4.079h-2.421v4.079a.806.806,0,0,1-.324.05.882.882,0,0,1-.35-.05V32.68Zm-2.447,4.594h2.432a1.8,1.8,0,0,0,1.9-1.994,1.81,1.81,0,0,0-1.9-2.006h-2.432Z" transform="translate(-434.017 -32.521)" fill="#0a3370"/>
      <path id="Path_915" data-name="Path 915" d="M637.047,32.68a.829.829,0,0,1,.053.294.714.714,0,0,1-.053.312h-4.385v3.691h3.75a.962.962,0,0,1,.053.294.691.691,0,0,1-.053.294h-3.75V41.4h4.515a.958.958,0,0,1,.053.294.744.744,0,0,1-.053.312H632V32.68Z" transform="translate(-453.118 -32.521)" fill="#0a3370"/>
      <path id="Path_916" data-name="Path 916" d="M661.3,32.68a.833.833,0,0,1,.053.294.759.759,0,0,1-.053.312h-4.388v3.691h3.741a.962.962,0,0,1,.053.294.737.737,0,0,1-.053.294h-3.741V41.4h4.518a.96.96,0,0,1,.053.294.8.8,0,0,1-.053.312H656.24V32.68Z" transform="translate(-470.228 -32.521)" fill="#0a3370"/>
      <path id="Path_917" data-name="Path 917" d="M582.358,73.58a.7.7,0,0,1,.053.294.788.788,0,0,1-.053.294H580.15v8.671a.806.806,0,0,1-.338.053.735.735,0,0,1-.335-.053V74.174H577.2a.829.829,0,0,1-.05-.294.81.81,0,0,1,.05-.294Z" transform="translate(-414.4 -61.392)" fill="#0a3370"/>
      <path id="Path_918" data-name="Path 918" d="M607.738,73.628a.912.912,0,0,1,.335-.05.942.942,0,0,1,.338.05v9.215a.824.824,0,0,1-.338.053.662.662,0,0,1-.335-.053V78.431h-4.765v4.412a.882.882,0,0,1-.335.053.744.744,0,0,1-.338-.053V73.628a.941.941,0,0,1,.338-.05.912.912,0,0,1,.335.05V77.82h4.765Z" transform="translate(-432.153 -61.39)" fill="#0a3370"/>
      <path id="Path_919" data-name="Path 919" d="M631.87,73.627a.864.864,0,0,1,.338-.05.841.841,0,0,1,.335.05v9.215a.8.8,0,0,1-.335.053.744.744,0,0,1-.338-.053Z" transform="translate(-453.026 -61.389)" fill="#0a3370"/>
      <path id="Path_920" data-name="Path 920" d="M644.235,75.7a7.732,7.732,0,0,1-.647-1.241h-.021s.05.571.05,1.812V82.84a.8.8,0,0,1-.335.053.735.735,0,0,1-.312-.053V73.626a1.344,1.344,0,0,1,.4-.05,1.1,1.1,0,0,1,.388.05l4.256,7.059A12.288,12.288,0,0,1,648.705,82h.023s-.05-.712-.05-1.721V73.626a.741.741,0,0,1,.323-.05.686.686,0,0,1,.294.05V82.84a1.024,1.024,0,0,1-.388.053,1.159,1.159,0,0,1-.4-.053Z" transform="translate(-460.861 -61.387)" fill="#0a3370"/>
      <path id="Path_921" data-name="Path 921" d="M678.52,73.627a1.223,1.223,0,0,1,.362-.05,1.417,1.417,0,0,1,.362.05l-3.062,4.362,3.43,4.853a1.121,1.121,0,0,1-.388.053,1.409,1.409,0,0,1-.415-.053l-3.185-4.491h-1.629v4.491a.806.806,0,0,1-.338.053.882.882,0,0,1-.335-.053V73.627a.976.976,0,0,1,.35-.05.806.806,0,0,1,.323.05v4.118h1.618Z" transform="translate(-482.285 -61.389)" fill="#0a3370"/>
      <path id="Path_922" data-name="Path 922" d="M700,73.627a.865.865,0,0,1,.338-.05.842.842,0,0,1,.335.05v9.215a.8.8,0,0,1-.335.053.744.744,0,0,1-.338-.053Z" transform="translate(-501.118 -61.389)" fill="#0a3370"/>
      <path id="Path_923" data-name="Path 923" d="M712.338,75.7a7.732,7.732,0,0,1-.647-1.241h-.023s.05.571.05,1.812V82.84a.8.8,0,0,1-.335.053.735.735,0,0,1-.312-.053V73.626a1.344,1.344,0,0,1,.4-.05,1.1,1.1,0,0,1,.388.05l4.256,7.059A12.279,12.279,0,0,1,716.805,82h.023s-.05-.712-.05-1.721V73.626a.741.741,0,0,1,.323-.05.685.685,0,0,1,.294.05V82.84a1.024,1.024,0,0,1-.388.053,1.159,1.159,0,0,1-.4-.053Z" transform="translate(-508.932 -61.387)" fill="#0a3370"/>
      <path id="Path_924" data-name="Path 924" d="M743.637,73.134a5.862,5.862,0,0,1,2.368.426.991.991,0,0,1-.221.5,6.65,6.65,0,0,0-2.059-.335c-1.724,0-3.029.959-3.029,4.206s1.294,4.168,3.029,4.168a8.391,8.391,0,0,0,1.765-.206v-3.65h-2.329a.789.789,0,0,1-.053-.294.644.644,0,0,1,.053-.294h2.991v4.635a6.706,6.706,0,0,1-2.512.426c-2.329,0-3.65-1.565-3.65-4.788C739.993,74.752,741.293,73.134,743.637,73.134Z" transform="translate(-529.346 -61.075)" fill="#0a3370"/>
      <path id="Path_925" data-name="Path 925" d="M581.79,114.59a2.309,2.309,0,0,1,.818-.115,2.464,2.464,0,0,1,.841.115v7.779h3.715a1.869,1.869,0,0,1,.129.712,2.257,2.257,0,0,1-.129.712H581.79Z" transform="translate(-417.675 -90.258)" fill="#0a3370"/>
      <path id="Path_926" data-name="Path 926" d="M606.348,114c2.279,0,3.741,1.435,3.741,4.788s-1.423,4.788-3.741,4.788-3.738-1.435-3.738-4.788S604.072,114,606.348,114Zm0,1.371c-1.176,0-1.991.674-1.991,3.418s.8,3.418,1.991,3.418,1.994-.688,1.994-3.418-.776-3.406-1.994-3.406Z" transform="translate(-432.372 -89.924)" fill="#0a3370"/>
      <path id="Path_927" data-name="Path 927" d="M634.35,114.478a3.768,3.768,0,0,1,1.009.115l3.094,9.085a2.7,2.7,0,0,1-.906.118,2.059,2.059,0,0,1-.8-.118l-.7-2.059h-3.529l-.7,2.059a2.262,2.262,0,0,1-.8.118,2.083,2.083,0,0,1-.765-.118l3.094-9.085A4.285,4.285,0,0,1,634.35,114.478Zm-.091,1.732a12.926,12.926,0,0,1-.388,1.438l-.906,2.626h2.626l-.882-2.626a13.378,13.378,0,0,1-.4-1.438Z" transform="translate(-451.882 -90.26)" fill="#0a3370"/>
      <path id="Path_928" data-name="Path 928" d="M664.718,118.472a15.1,15.1,0,0,1-.841-1.9h-.053s.106,1.021.106,2.353v4.735a1.967,1.967,0,0,1-.776.118,1.818,1.818,0,0,1-.753-.118v-9.071a3.53,3.53,0,0,1,1-.115,3.25,3.25,0,0,1,.985.115l2.665,5.176a15.871,15.871,0,0,1,.868,1.944h.053s-.106-1.088-.106-2.409V114.6a1.941,1.941,0,0,1,.776-.115,1.724,1.724,0,0,1,.753.115v9.085a3.033,3.033,0,0,1-.971.118,3.612,3.612,0,0,1-1.012-.118Z" transform="translate(-474.576 -90.257)" fill="#0a3370"/>
      <path id="Path_929" data-name="Path 929" d="M695.172,114a7.814,7.814,0,0,1,2.6.388,1.991,1.991,0,0,1-.441,1.294,6.645,6.645,0,0,0-1.929-.294c-1.253,0-1.85.415-1.85,1.256s1.127,1.035,2.253,1.435,2.329,1.05,2.329,2.706c0,1.8-1.126,2.782-3.338,2.782a6.85,6.85,0,0,1-2.888-.571,2.436,2.436,0,0,1,.388-1.318,9.221,9.221,0,0,0,2.435.4c1.2,0,1.706-.426,1.706-1.256,0-.7-.588-1.021-1.344-1.294-1.332-.479-3.185-.788-3.185-2.809C691.9,115.108,692.963,114,695.172,114Z" transform="translate(-495.407 -89.919)" fill="#0a3370"/>
    </g>
  </g>
</svg>
