<svg xmlns="http://www.w3.org/2000/svg" width="263" height="100" viewBox="0 0 263 100">
  <g id="Group_982" data-name="Group 982" transform="translate(-143 -7801)">
    <g id="Rectangle_646" data-name="Rectangle 646" transform="translate(143 7801)" fill="#fff" stroke="#621a4b" stroke-width="1">
      <rect width="263" height="100" rx="5" stroke="none"/>
      <rect x="0.5" y="0.5" width="262" height="99" rx="4.5" fill="none"/>
    </g>
    <g id="money3-logo" transform="translate(167.858 7817.45)">
      <g id="Group_1003" data-name="Group 1003" transform="translate(11.75 6.55)">
        <path id="Path_930" data-name="Path 930" d="M11.881,38.912c.146-.663.231-1.333.416-1.98A11.716,11.716,0,0,1,15.4,31.622a12.765,12.765,0,0,1,9.455-3.568A12.492,12.492,0,0,1,29.48,29.2a11.692,11.692,0,0,1,3.66,2.6c.054.054.116.108.2.185.354-.324.686-.647,1.04-.963A11.751,11.751,0,0,1,41.3,28.1a12.547,12.547,0,0,1,7.775,1.772,11.615,11.615,0,0,1,4.978,6.041,12.58,12.58,0,0,1,.794,4.461V51.094a3.2,3.2,0,0,1-2.535,3.2,3.248,3.248,0,0,1-3.868-2.643,5.911,5.911,0,0,1-.077-1.04c.008-3.652.039-7.3-.015-10.957A5.242,5.242,0,0,0,45.168,34.6a6.024,6.024,0,0,0-6.534.732,5.487,5.487,0,0,0-2.027,3.845,18.739,18.739,0,0,0-.062,2.181c-.008,2.35-.039,4.7.008,7.05a3.226,3.226,0,0,1-6.4.624,6.948,6.948,0,0,1-.092-1.133c.008-2.743.031-5.494,0-8.237a5.608,5.608,0,0,0-5.61-5.648A5.966,5.966,0,0,0,20.526,35.2a5.5,5.5,0,0,0-2.1,3.506,8.674,8.674,0,0,0-.123,1.61c0,3.575-.015,7.143.008,10.718a3.323,3.323,0,0,1-2.789,3.29,3.25,3.25,0,0,1-3.606-2.35.371.371,0,0,0-.062-.123c-.085-.031-.046-.139-.108-.177V39.382C11.9,39.243,11.727,39.035,11.881,38.912Z" transform="translate(-11.75 -11.48)" fill="#00ce5e" stroke="#fff" stroke-miterlimit="10" stroke-width="0.5"/>
        <path id="Path_931" data-name="Path 931" d="M250.2,38.643a10.266,10.266,0,0,1-.747,3.074,11.662,11.662,0,0,1-3.036,4.438,11.855,11.855,0,0,1-3.876,2.358,13.257,13.257,0,0,1-4.747.809c-3.491-.023-6.989-.015-10.479,0a3.278,3.278,0,0,1-3.059-2.4,3.245,3.245,0,0,1,3.082-4c3.729.015,7.467.031,11.2-.008a5.792,5.792,0,0,0,4.392-1.826,5.617,5.617,0,0,0,1.456-3.529,5.954,5.954,0,0,0-1.009-3.976,5.353,5.353,0,0,0-4.153-2.366c-3.044-.2-6.087-.046-9.139-.077a3.356,3.356,0,0,1-2.111-.724,2.918,2.918,0,0,1-1.133-1.957,3.244,3.244,0,0,1,2.188-3.568,3.859,3.859,0,0,1,1.217-.154c2.782,0,5.556.015,8.337-.008a5.921,5.921,0,0,0,4.038-1.533,5.353,5.353,0,0,0,1.649-2.99,6.211,6.211,0,0,0-.393-3.86,5.3,5.3,0,0,0-3.452-3.036,7.143,7.143,0,0,0-2.065-.277c-3.56.008-7.112,0-10.672.008a3.581,3.581,0,0,1-2.3-.732,3,3,0,0,1-1.194-2.088,3.208,3.208,0,0,1,1.61-3.259,7.56,7.56,0,0,1,1.048-.408h12.2c.154.1.324.023.485.046a9.786,9.786,0,0,1,4.885,1.533,12.163,12.163,0,0,1,5.664,7.667,5.476,5.476,0,0,1,.154,1.5c.023.162-.054.331.046.493v2.188c-.1.154-.023.324-.046.485a6.966,6.966,0,0,1-.57,2.82,13.241,13.241,0,0,1-2.7,4.323c-.285.308-.262.493.023.778a11.818,11.818,0,0,1,3.1,5.525,5.791,5.791,0,0,1,.154,1.5c.023.162-.054.331.046.485v2.289C250.165,38.3,250.3,38.489,250.2,38.643Z" transform="translate(-60.488 -6.55)" fill="#abb4cf" stroke="#fff" stroke-miterlimit="10" stroke-width="0.5"/>
        <path id="Path_932" data-name="Path 932" d="M195.663,65.4a3.452,3.452,0,0,1-1.7-1.094,3.1,3.1,0,0,1-.578-3.028c.378-1.14.832-2.25,1.264-3.375q.867-2.265,1.734-4.515c.023-.062.031-.123.054-.177.1-.216,0-.285-.2-.285a3.564,3.564,0,0,1-1.333-.285,4.279,4.279,0,0,1-2.558-2.389q-2.1-5.016-4.223-10.017-1.607-3.8-3.221-7.605a3.194,3.194,0,0,1,.555-3.583,3.309,3.309,0,0,1,5.417.994c1.364,3.182,2.712,6.372,4.068,9.562q1.745,4.1,3.5,8.206a.3.3,0,0,0,.146.193c.485-1.318.971-2.628,1.456-3.945l3.213-8.83q.878-2.4,1.749-4.816a3.287,3.287,0,0,1,2.743-2.327,3.223,3.223,0,0,1,3.629,2.5,3.057,3.057,0,0,1-.123,1.818q-.878,2.358-1.772,4.708c-1.148,3.036-2.289,6.064-3.444,9.1q-2.843,7.478-5.679,14.949c-.239.624-.485,1.241-.693,1.865a3.446,3.446,0,0,1-2.389,2.373c-.077.092-.208,0-.285.092h-1.14C195.81,65.42,195.717,65.451,195.663,65.4Z" transform="translate(-51.41 -11.482)" fill="#00ce5e" stroke="#fff" stroke-miterlimit="10" stroke-width="0.5"/>
        <path id="Path_933" data-name="Path 933" d="M110.653,45.649V40.887a12.292,12.292,0,0,1,1.11-5.109,12.871,12.871,0,0,1,7.59-6.966,12.609,12.609,0,0,1,3.375-.709,13.213,13.213,0,0,1,7.436,1.456,12.924,12.924,0,0,1,6.75,8.63,12.755,12.755,0,0,1,.339,3.059v9.57a3.581,3.581,0,0,1-.794,2.373,3.23,3.23,0,0,1-4.662.293A3.272,3.272,0,0,1,130.726,51c.015-3.267.023-6.542,0-9.809a7.284,7.284,0,0,0-2.027-5.17,6.365,6.365,0,0,0-4.292-2,6.437,6.437,0,0,0-4.5,1.325,7.034,7.034,0,0,0-2.681,4.6,10.485,10.485,0,0,0-.116,1.7c0,3.159-.015,6.318.008,9.478a3.254,3.254,0,0,1-6.426.7,2.723,2.723,0,0,1-.062-.663C110.661,49.324,110.653,47.491,110.653,45.649Z" transform="translate(-34.439 -11.483)" fill="#00ce5e" stroke="#fff" stroke-miterlimit="10" stroke-width="0.5"/>
        <g id="Group_992" data-name="Group 992" transform="translate(106.046 16.608)">
          <g id="Group_991" data-name="Group 991">
            <g id="Group_990" data-name="Group 990">
              <g id="Group_986" data-name="Group 986">
                <g id="Group_984" data-name="Group 984">
                  <path id="Path_934" data-name="Path 934" d="M174.668,37.247a12.124,12.124,0,0,0-3.652-5.841,12.427,12.427,0,0,0-11.157-3.028,12.563,12.563,0,0,0-7.189,4.161,13.148,13.148,0,0,0,1.117,18.516,12.913,12.913,0,0,0,7.69,3.259,19.578,19.578,0,0,0,5.109-.27,12.349,12.349,0,0,0,4.107-1.426,3.583,3.583,0,0,0,1.788-2.065,2.894,2.894,0,0,0-3.005-3.814,4.291,4.291,0,0,0-2.219.763,4.265,4.265,0,0,1-.979.478,9.91,9.91,0,0,1-4.446.462,6.853,6.853,0,0,1-4.908-2.92,3.585,3.585,0,0,1-.709-1.634,1.157,1.157,0,0,1,.532-.046h13.338a16.065,16.065,0,0,0,1.61-.054,3.625,3.625,0,0,0,3.329-3.39A9.106,9.106,0,0,0,174.668,37.247Z" transform="translate(-149.374 -28.104)" fill="#00ce5e"/>
                </g>
                <g id="Group_985" data-name="Group 985">
                  <path id="Path_935" data-name="Path 935" d="M174.668,37.247a12.124,12.124,0,0,0-3.652-5.841,12.427,12.427,0,0,0-11.157-3.028,12.563,12.563,0,0,0-7.189,4.161,13.148,13.148,0,0,0,1.117,18.516,12.913,12.913,0,0,0,7.69,3.259,19.578,19.578,0,0,0,5.109-.27,12.349,12.349,0,0,0,4.107-1.426,3.583,3.583,0,0,0,1.788-2.065,2.894,2.894,0,0,0-3.005-3.814,4.291,4.291,0,0,0-2.219.763,4.265,4.265,0,0,1-.979.478,9.91,9.91,0,0,1-4.446.462,6.853,6.853,0,0,1-4.908-2.92,3.585,3.585,0,0,1-.709-1.634,1.157,1.157,0,0,1,.532-.046h13.338a16.065,16.065,0,0,0,1.61-.054,3.625,3.625,0,0,0,3.329-3.39A9.106,9.106,0,0,0,174.668,37.247Z" transform="translate(-149.374 -28.104)" fill="none" stroke="#fff" stroke-miterlimit="10" stroke-width="0.5"/>
                </g>
              </g>
              <g id="Group_989" data-name="Group 989" transform="translate(6.816 5.762)">
                <g id="Group_987" data-name="Group 987">
                  <path id="Path_936" data-name="Path 936" d="M170.418,38.978a6.722,6.722,0,0,0-11.789.208,2.9,2.9,0,0,0-.408,1.194h12.622A3.185,3.185,0,0,0,170.418,38.978Z" transform="translate(-158.22 -35.581)" fill="#fff"/>
                </g>
                <g id="Group_988" data-name="Group 988">
                  <path id="Path_937" data-name="Path 937" d="M170.418,38.978a6.722,6.722,0,0,0-11.789.208,2.9,2.9,0,0,0-.408,1.194h12.622A3.185,3.185,0,0,0,170.418,38.978Z" transform="translate(-158.22 -35.581)" fill="none" stroke="#fff" stroke-miterlimit="10" stroke-width="0.5"/>
                </g>
              </g>
            </g>
          </g>
        </g>
        <g id="Group_1002" data-name="Group 1002" transform="translate(46.336 16.573)">
          <g id="Group_1001" data-name="Group 1001">
            <g id="Group_1000" data-name="Group 1000">
              <g id="Group_999" data-name="Group 999">
                <g id="Group_995" data-name="Group 995">
                  <g id="Group_993" data-name="Group 993">
                    <path id="Path_938" data-name="Path 938" d="M98.272,38.67a12.676,12.676,0,0,0-5.132-8.044,13.737,13.737,0,0,0-14.625-.855,12.66,12.66,0,0,0-5.579,6.211,13.369,13.369,0,0,0,.786,11.951A13.136,13.136,0,0,0,85.3,54.35a8.971,8.971,0,0,0,1.934-.131,13.235,13.235,0,0,0,11.288-12.76A12.089,12.089,0,0,0,98.272,38.67Z" transform="translate(-71.884 -28.058)" fill="#00ce5e"/>
                  </g>
                  <g id="Group_994" data-name="Group 994">
                    <path id="Path_939" data-name="Path 939" d="M98.272,38.67a12.676,12.676,0,0,0-5.132-8.044,13.737,13.737,0,0,0-14.625-.855,12.66,12.66,0,0,0-5.579,6.211,13.369,13.369,0,0,0,.786,11.951A13.136,13.136,0,0,0,85.3,54.35a8.971,8.971,0,0,0,1.934-.131,13.235,13.235,0,0,0,11.288-12.76A12.089,12.089,0,0,0,98.272,38.67Z" transform="translate(-71.884 -28.058)" fill="none" stroke="#fff" stroke-miterlimit="10" stroke-width="0.5"/>
                  </g>
                </g>
                <g id="Group_998" data-name="Group 998" transform="translate(6.2 5.944)">
                  <g id="Group_996" data-name="Group 996">
                    <path id="Path_940" data-name="Path 940" d="M94.069,42.359a6.859,6.859,0,0,0-2.158-4.577,6.7,6.7,0,0,0-6.473-1.8,7.213,7.213,0,0,0-5.509,6.927,7.417,7.417,0,0,0,.455,2.55A7.071,7.071,0,0,0,87,50.218a6.686,6.686,0,0,0,4.831-1.973A7.259,7.259,0,0,0,94.069,42.359Z" transform="translate(-79.93 -35.772)" fill="#fff"/>
                  </g>
                  <g id="Group_997" data-name="Group 997">
                    <path id="Path_941" data-name="Path 941" d="M94.069,42.359a6.859,6.859,0,0,0-2.158-4.577,6.7,6.7,0,0,0-6.473-1.8,7.213,7.213,0,0,0-5.509,6.927,7.417,7.417,0,0,0,.455,2.55A7.071,7.071,0,0,0,87,50.218a6.686,6.686,0,0,0,4.831-1.973A7.259,7.259,0,0,0,94.069,42.359Z" transform="translate(-79.93 -35.772)" fill="none" stroke="#fff" stroke-miterlimit="10" stroke-width="0.5"/>
                  </g>
                </g>
              </g>
            </g>
          </g>
        </g>
      </g>
    </g>
  </g>
</svg>
