<svg id="Layer_1" data-name="Layer 1" xmlns="http://www.w3.org/2000/svg" viewBox="0 0 410.91 410.91"><defs><style>.cls-1{fill:#fefefe;}</style></defs><path d="M-80,5.71C-79,1-78-3.76-76.85-8.44A48,48,0,0,1-63.91-31C-51.9-43-39.79-54.88-28-67c16.64-17.08,42.5-15.21,58.18.14,18.4,18,36.54,36.34,54.68,54.63C101.33,4.32,101.61,29,85.34,44a39.36,39.36,0,0,1-12.17,7.36c-14.13,5.55-23.84,14.8-27,30.05-1.87,9.06,1,17.42,4.17,25.65,8.28,21.61,22.27,39.36,38.49,55.41,15.93,15.77,33.65,29.11,54.61,37.67,14.27,5.82,28,5.66,41.09-3.23a34.61,34.61,0,0,0,13.93-18.52c7.83-25,41.79-35,63.36-13.72,19,18.76,38,37.53,56.6,56.67,15.3,15.72,14.84,40.93-.63,56.69-12.34,12.58-24.88,25-37.36,37.4-8.86,8.84-19.75,13.31-32,14.72a5.52,5.52,0,0,0-1.58.74H226a6.19,6.19,0,0,0-1.56-.83c-5.86-1.2-11.81-2.07-17.61-3.55-30.11-7.74-57.29-21.92-83.27-38.58-31.68-20.3-60.45-44.24-87.05-70.79C-.71,180-33.2,139.36-56.79,92.09-66,73.7-73.42,54.66-77.13,34.33c-.92-5-1.91-10-2.87-15Z" transform="translate(80 80)"/></svg>